<?xml version="1.0" standalone="no"?>
<!DOCTYPE svg PUBLIC "-//W3C//DTD SVG 20010904//EN"
 "http://www.w3.org/TR/2001/REC-SVG-20010904/DTD/svg10.dtd">
<svg version="1.0" xmlns="http://www.w3.org/2000/svg"
 width="272.000000pt" height="185.000000pt" viewBox="0 0 272.000000 185.000000"
 preserveAspectRatio="xMidYMid meet">

<g transform="translate(0.000000,185.000000) scale(0.100000,-0.100000)"
fill="#000000" stroke="none">
<path d="M0 925 l0 -925 283 1 c155 1 271 4 257 8 -22 6 -23 8 -7 14 10 4 28
7 40 8 21 0 21 1 2 9 -15 7 -10 9 23 9 23 1 42 5 42 10 0 13 -38 21 -105 21
-40 0 -55 3 -45 9 10 7 1 11 -30 13 -30 2 -44 7 -42 15 1 8 -9 13 -24 13 -17
0 -28 6 -31 20 -3 11 -15 21 -27 21 -11 1 6 5 39 9 33 3 69 3 80 0 31 -11 239
-38 338 -44 82 -5 87 -4 87 15 0 18 -4 20 -30 14 -27 -6 -36 -2 -65 30 -56 59
-43 93 41 103 l47 5 -5 183 c-3 100 -1 190 4 198 6 11 24 16 57 16 l49 0 -2
49 c-1 54 -12 73 -27 51 -9 -13 -10 -13 -8 0 3 16 -21 70 -30 70 -11 0 -32
-40 -26 -49 3 -5 -3 -7 -14 -4 -12 3 -28 -7 -49 -33 -17 -21 -29 -41 -26 -46
3 -4 -3 -8 -14 -8 -22 0 -52 -30 -52 -52 0 -9 7 -21 15 -28 21 -18 11 -24 -15
-10 -12 7 -20 8 -17 3 3 -5 -10 -15 -29 -22 -36 -13 -40 -21 -24 -50 8 -15 5
-18 -18 -18 -15 0 -36 -3 -46 -8 -20 -9 -20 -8 0 26 11 19 34 41 52 49 17 8
32 19 32 23 0 21 90 155 147 219 77 88 116 128 124 128 4 0 9 8 12 19 3 15 0
17 -16 13 -18 -5 -19 -3 -7 10 8 8 22 13 31 11 19 -5 19 20 1 54 -16 28 -15
31 6 36 16 4 16 5 0 6 -12 1 -18 9 -18 24 0 18 10 29 40 43 25 12 40 26 40 37
0 10 4 16 8 13 15 -9 28 29 26 74 -2 53 13 112 32 123 8 4 14 15 14 22 0 11
12 15 40 15 31 0 40 4 40 18 1 16 2 16 14 -1 14 -18 16 -17 53 16 56 50 119
87 141 82 11 -2 32 -11 45 -20 14 -9 33 -15 43 -13 10 2 18 -4 19 -14 4 -22 3
-22 -45 2 -43 22 -51 24 -49 13 1 -5 1 -17 0 -28 -2 -19 -2 -19 -16 -1 -13 18
-14 17 -20 -7 -4 -14 -13 -28 -21 -31 -8 -3 -14 -10 -14 -16 0 -6 4 -9 8 -6
15 9 144 -31 237 -73 5 -2 3 2 -5 10 -13 12 -63 40 -80 44 -3 0 -27 11 -53 23
-39 19 -45 25 -35 35 14 14 62 17 74 4 4 -4 18 2 30 14 17 16 29 19 53 14 17
-4 31 -11 31 -16 0 -5 7 -9 15 -9 8 0 15 -4 15 -9 0 -6 14 -18 31 -28 17 -10
40 -35 50 -55 11 -21 24 -38 29 -38 6 0 10 -8 10 -18 0 -20 63 -75 120 -106
19 -10 45 -29 57 -42 12 -13 29 -24 38 -24 8 0 15 -4 15 -10 0 -5 6 -10 14
-10 21 0 27 -28 8 -40 -12 -6 -13 -12 -6 -17 6 -5 14 -25 18 -45 5 -30 4 -38
-8 -38 -8 0 -17 -6 -19 -12 -8 -19 -24 7 -44 71 -17 53 -27 62 -87 77 -20 5
-24 1 -28 -25 -5 -34 0 -45 23 -53 9 -4 19 -20 22 -37 4 -18 13 -31 22 -31 8
0 15 -4 15 -10 0 -5 14 -10 30 -10 26 0 30 -4 30 -27 0 -16 5 -35 10 -43 7
-11 10 -3 10 28 0 46 22 56 28 14 2 -16 10 -22 28 -22 13 0 24 -4 24 -8 0 -5
18 -15 40 -22 45 -15 50 -25 18 -34 -19 -5 -20 -8 -8 -15 11 -8 9 -12 -13 -20
-16 -6 -32 -11 -37 -11 -5 0 -10 -6 -13 -12 -2 -8 -10 -1 -19 15 -13 25 -16
27 -27 13 -11 -13 -17 -14 -30 -4 -14 12 -14 11 -2 -4 10 -14 18 -15 32 -7 15
7 19 6 19 -5 0 -8 -4 -16 -9 -18 -5 -2 -3 -12 6 -23 15 -19 15 -19 8 5 -7 21
-6 23 7 13 8 -7 18 -9 22 -5 4 4 7 3 6 -3 -1 -5 -2 -17 -1 -25 1 -11 4 -11 13
-2 17 17 28 15 21 -4 -4 -10 2 -17 16 -21 16 -4 20 -11 16 -24 -5 -15 -2 -17
10 -13 11 5 16 2 14 -7 -4 -23 13 -89 22 -89 5 0 9 -4 9 -10 0 -5 -7 -7 -15
-4 -20 8 -19 -5 3 -25 21 -20 37 -45 62 -97 11 -23 27 -47 35 -54 9 -8 20 -21
26 -31 7 -15 6 -17 -6 -13 -8 4 -15 13 -15 20 0 8 -16 24 -35 35 -19 12 -32
26 -28 32 4 7 0 8 -12 4 -11 -5 -22 -1 -31 10 -10 13 -16 15 -21 7 -6 -8 -14
-4 -26 12 l-18 24 34 0 c18 0 38 -5 45 -12 9 -9 12 -9 12 0 0 7 -18 25 -40 40
-31 21 -39 32 -35 48 5 22 -18 40 -36 28 -5 -3 -9 3 -9 13 -1 17 -1 17 -11 0
-6 -9 -15 -14 -21 -11 -6 4 -14 1 -18 -7 -7 -10 -14 -10 -32 -2 -23 10 -23 11
10 19 17 5 32 13 31 18 0 5 5 12 12 16 15 10 3 43 -13 38 -7 -3 -22 6 -34 19
-16 17 -24 20 -28 11 -3 -7 -3 -1 0 13 4 21 -3 33 -36 63 -35 32 -40 40 -29
53 11 13 10 15 -6 11 -15 -3 -19 -11 -18 -31 1 -15 -2 -27 -8 -27 -5 0 -9 15
-9 33 0 28 -5 36 -35 50 -20 9 -38 24 -41 32 -4 8 -13 15 -21 15 -8 0 -12 4
-9 9 5 8 -35 31 -55 31 -5 0 -9 -7 -7 -16 2 -10 -3 -19 -11 -22 -11 -3 -12 0
-6 14 4 11 17 43 27 73 l19 54 -32 33 c-18 19 -49 42 -68 52 -20 9 -62 32 -94
51 l-58 33 -114 -7 c-63 -4 -115 -11 -115 -15 0 -4 -38 -20 -84 -34 -47 -15
-93 -37 -105 -50 -24 -26 -27 -72 -6 -100 8 -10 12 -23 8 -29 -3 -6 -1 -7 5
-3 6 3 14 0 19 -7 4 -7 17 -20 29 -28 33 -22 84 -86 89 -108 4 -24 34 -79 52
-99 11 -12 33 -75 33 -96 0 -5 -13 7 -30 25 -16 19 -30 41 -30 50 0 9 -6 19
-14 22 -13 5 -68 108 -65 124 1 4 0 11 -1 16 -1 4 -3 11 -4 15 -1 8 -32 42
-38 42 -8 0 -8 -108 0 -130 5 -13 6 -41 2 -62 -4 -21 -4 -41 0 -43 9 -5 2 -43
-9 -49 -7 -5 -8 0 -13 98 -3 74 -17 94 -35 49 l-11 -28 -1 37 c-1 25 4 40 15
46 23 13 11 62 -13 57 -74 -15 -75 -15 -63 -30 10 -12 9 -22 -3 -46 -11 -24
-12 -40 -5 -67 5 -19 8 -46 5 -59 -3 -17 -1 -23 8 -19 10 3 10 -2 2 -24 -6
-16 -9 -32 -6 -34 3 -3 184 -6 404 -6 249 -1 405 -5 417 -11 18 -10 19 -20 12
-198 l-7 -188 38 -7 c61 -12 82 -31 77 -69 -7 -50 -30 -70 -75 -64 -35 5 -38
3 -44 -24 -3 -16 -10 -29 -15 -29 -10 0 -44 25 -157 113 -99 78 -156 105 -229
110 -105 7 -190 -14 -277 -67 -101 -64 -173 -111 -209 -139 -17 -12 -34 -21
-39 -19 -5 1 -6 -2 -2 -8 3 -5 12 -10 20 -10 7 0 15 -6 18 -12 3 -10 30 -12
100 -10 54 1 97 -2 97 -7 0 -11 405 -15 548 -5 81 5 102 10 98 20 -3 9 2 14
13 14 10 0 24 7 31 15 7 8 23 15 36 15 13 0 24 4 24 9 0 5 60 12 133 16 72 3
157 10 187 15 94 16 243 22 235 11 -3 -6 -14 -12 -23 -12 -9 -1 -1 -5 18 -9
29 -6 23 -8 -32 -9 -62 -1 -87 -12 -56 -24 7 -3 2 -6 -11 -6 -13 -1 -29 -9
-36 -18 -11 -15 -30 -17 -151 -15 -77 2 -152 4 -169 5 -21 1 -30 -3 -33 -16
-2 -11 3 -17 15 -18 16 0 16 -1 -2 -9 -18 -8 -17 -9 8 -9 16 -1 26 3 22 9 -4
6 12 10 42 9 36 0 43 -3 28 -9 -14 -6 -3 -9 39 -9 70 -1 70 -6 1 -16 -27 -3
-51 -8 -54 -11 -2 -2 152 -4 342 -4 l347 0 0 925 0 925 -1360 0 -1360 0 0
-925z m1757 -17 c-3 -8 -6 -5 -6 6 -1 11 2 17 5 13 3 -3 4 -12 1 -19z m-121
-28 c-1 -17 4 -32 11 -34 18 -7 16 -43 -2 -43 -9 0 -14 6 -11 14 3 7 1 13 -5
13 -9 0 -11 54 -1 73 7 15 10 6 8 -23z m131 -47 c-3 -10 -5 -4 -5 12 0 17 2
24 5 18 2 -7 2 -21 0 -30z m-697 -7 c0 -3 -4 -8 -10 -11 -5 -3 -10 -1 -10 4 0
6 5 11 10 11 6 0 10 -2 10 -4z m470 -7 c0 -5 -4 -7 -10 -4 -5 3 -10 1 -10 -4
0 -6 -5 -11 -11 -11 -8 0 -8 5 1 15 14 17 30 20 30 4z m-216 -25 c5 -14 4 -15
-9 -4 -17 14 -19 20 -6 20 5 0 12 -7 15 -16z m23 -56 c-3 -7 -5 -2 -5 12 0 14
2 19 5 13 2 -7 2 -19 0 -25z m-628 -142 c-2 -2 -15 -9 -29 -15 -24 -11 -24
-11 -6 3 16 13 49 24 35 12z m1336 -46 c-10 -11 -28 -20 -39 -20 -16 0 -13 4
14 19 46 24 46 24 25 1z m-1410 -40 c14 -6 15 -9 5 -10 -29 -3 -64 -11 -69
-15 -8 -9 60 -5 77 4 12 6 26 5 42 -5 l25 -13 -30 -2 c-16 -2 -47 -1 -67 0
-20 1 -53 -2 -72 -7 -48 -14 -38 8 17 36 47 24 44 24 72 12z m1242 -57 c-3
-10 -5 -4 -5 12 0 17 2 24 5 18 2 -7 2 -21 0 -30z m-1120 21 c-3 -3 -12 -4
-19 -1 -8 3 -5 6 6 6 11 1 17 -2 13 -5z m-276 -76 c-11 -10 -13 -10 -7 0 4 6
2 12 -4 12 -6 0 -8 5 -4 11 4 8 9 8 17 0 8 -8 7 -14 -2 -23z m146 6 c-3 -3
-12 -4 -19 -1 -8 3 -5 6 6 6 11 1 17 -2 13 -5z m1576 -31 c-3 -7 2 -13 10 -13
8 0 21 -8 28 -17 13 -16 12 -17 -3 -4 -10 7 -27 11 -38 8 -11 -3 -22 -1 -25 4
-3 4 -18 6 -33 3 -19 -4 -32 0 -41 10 -11 13 -10 17 10 25 57 21 103 14 92
-16z m-1753 -18 c-6 -15 -13 -25 -16 -22 -4 3 0 20 7 37 17 37 24 25 9 -15z
m228 26 c8 -4 12 -12 10 -16 -1 -5 13 -14 32 -21 l35 -12 -30 -2 c-26 -2 -24
-3 14 -11 46 -9 66 -19 38 -19 -24 0 -86 -42 -93 -62 -6 -19 -34 -25 -34 -8 0
6 7 10 15 10 8 0 15 5 15 10 0 7 -7 7 -20 0 -12 -7 -26 -7 -36 -2 -13 7 -11
13 16 35 17 15 36 27 41 27 6 0 7 5 3 11 -4 7 -9 7 -13 1 -3 -5 -26 -19 -49
-31 l-44 -22 8 23 c6 20 5 21 -9 10 -8 -7 -29 -17 -46 -22 -29 -8 -30 -7 -20
12 9 17 13 18 21 7 8 -11 8 -10 4 4 -3 10 -6 23 -6 28 0 5 -14 -5 -31 -23
l-31 -33 28 38 c15 22 33 36 40 33 8 -3 13 -2 11 2 -1 4 5 15 13 24 16 19 94
24 118 9z m1237 -1 c3 -6 -1 -7 -9 -4 -18 7 -21 14 -7 14 6 0 13 -4 16 -10z
m428 -62 c7 -24 5 -23 -29 27 l-26 40 25 -23 c14 -13 27 -33 30 -44z m-229 27
c20 -8 36 -18 36 -21 0 -3 -5 -2 -11 1 -6 4 -35 9 -66 10 -51 3 -54 2 -35 -11
11 -8 41 -23 66 -34 25 -10 46 -22 46 -26 0 -6 -33 0 -66 13 -12 4 -15 3 -10
-5 5 -8 2 -10 -8 -6 -9 3 -16 1 -16 -5 0 -16 -36 -13 -50 4 -7 8 -23 15 -36
15 -12 0 -26 5 -29 10 -3 6 -16 10 -28 11 -16 1 -13 4 12 10 22 7 43 7 64 0
16 -6 37 -11 45 -11 25 0 1 17 -38 28 l-35 9 55 10 c30 6 58 11 61 12 4 0 23
-6 43 -14z m253 -231 c-3 -3 -12 -4 -19 -1 -8 3 -5 6 6 6 11 1 17 -2 13 -5z
m-1384 -41 c-7 -2 -19 -2 -25 0 -7 3 -2 5 12 5 14 0 19 -2 13 -5z m1135 -30
c-10 -2 -26 -2 -35 0 -10 3 -2 5 17 5 19 0 27 -2 18 -5z"/>
<path d="M561 331 c-7 -5 -9 -11 -5 -14 5 -3 15 1 22 9 14 16 5 18 -17 5z"/>
<path d="M1388 1463 c7 -3 16 -2 19 1 4 3 -2 6 -13 5 -11 0 -14 -3 -6 -6z"/>
<path d="M1383 1444 c9 -9 -41 -47 -52 -40 -5 4 -12 -3 -16 -14 -3 -11 -10
-20 -15 -20 -5 0 -7 -9 -5 -20 2 -11 -1 -20 -7 -20 -6 0 -8 -3 -5 -6 9 -10 68
17 61 27 -3 5 1 6 9 3 8 -3 46 10 83 29 l68 34 -56 17 c-61 17 -75 20 -65 10z"/>
<path d="M1527 1392 c18 -15 20 -21 9 -25 -8 -3 -17 1 -20 9 -3 8 -12 14 -20
14 -17 0 -146 -60 -146 -67 0 -3 30 -3 68 1 62 6 142 32 142 47 0 4 -12 14
-27 23 l-28 17 22 -19z"/>
<path d="M1571 1331 c-13 -12 -18 -22 -11 -26 5 -3 10 -2 10 4 0 16 34 18 60
2 l25 -15 -24 27 c-29 32 -32 32 -60 8z"/>
<path d="M1060 1224 c-15 -38 -12 -42 10 -14 22 28 25 40 10 40 -6 0 -15 -12
-20 -26z"/>
<path d="M977 1005 c-4 -8 3 -10 19 -7 29 5 30 8 5 15 -11 3 -22 -1 -24 -8z"/>
<path d="M1960 950 c0 -5 5 -10 11 -10 5 0 7 5 4 10 -3 6 -8 10 -11 10 -2 0
-4 -4 -4 -10z"/>
<path d="M1950 922 c6 -13 14 -21 18 -18 3 4 -2 14 -12 24 -18 16 -18 16 -6
-6z"/>
<path d="M1980 923 c0 -5 7 -18 15 -29 13 -18 14 -18 8 4 -5 22 -23 41 -23 25z"/>
<path d="M891 917 c2 -1 13 -10 25 -20 17 -14 21 -14 21 -2 0 8 -4 12 -9 9 -4
-3 -8 0 -8 5 0 6 -7 11 -17 11 -9 0 -14 -1 -12 -3z"/>
<path d="M1190 880 c0 -5 5 -10 10 -10 6 0 10 5 10 10 0 6 -4 10 -10 10 -5 0
-10 -4 -10 -10z"/>
<path d="M2073 93 c9 -2 23 -2 30 0 6 3 -1 5 -18 5 -16 0 -22 -2 -12 -5z"/>
<path d="M690 71 c0 -16 19 -23 40 -16 30 10 24 25 -10 25 -16 0 -30 -4 -30
-9z"/>
<path d="M1048 53 c7 -3 16 -2 19 1 4 3 -2 6 -13 5 -11 0 -14 -3 -6 -6z"/>
<path d="M1353 33 c9 -2 25 -2 35 0 9 3 1 5 -18 5 -19 0 -27 -2 -17 -5z"/>
<path d="M1573 29 c16 -4 47 -4 70 0 38 7 35 8 -28 8 -51 0 -62 -2 -42 -8z"/>
<path d="M1503 23 c9 -2 23 -2 30 0 6 3 -1 5 -18 5 -16 0 -22 -2 -12 -5z"/>
</g>
</svg>
